<svg width="200" height="200" viewBox="0 0 200 200" fill="none" xmlns="http://www.w3.org/2000/svg">
<path d="M140 60.7098C139.716 61.06 139.412 61.3938 139.09 61.7098C139.055 61.751 139.034 61.8013 139.027 61.8546C139.02 61.908 139.029 61.9621 139.052 62.0107C139.075 62.0592 139.112 62.1 139.158 62.1282C139.203 62.1564 139.256 62.1709 139.31 62.1698C140.47 61.4586 141.387 60.4126 141.94 59.1698C142.08 58.7498 141.43 58.3698 141.22 58.8298C140.67 60.0398 138.59 60.1098 138.04 59.9198C137.964 59.8919 137.881 59.8953 137.808 59.929C137.735 59.9628 137.678 60.0242 137.65 60.0998C137.622 60.1754 137.626 60.2589 137.659 60.3321C137.693 60.4052 137.754 60.4619 137.83 60.4898C138.526 60.7308 139.269 60.8061 140 60.7098ZM136.37 55.6098C135.899 56.0287 135.402 56.4162 134.88 56.7698C134.782 56.8333 134.702 56.9209 134.648 57.0242C134.594 57.1275 134.567 57.2431 134.57 57.3598C134.57 57.7198 135.83 58.6598 135.84 58.6698C135.893 58.7091 135.958 58.7285 136.024 58.7245C136.09 58.7205 136.152 58.6934 136.2 58.648C136.248 58.6026 136.278 58.5418 136.285 58.4762C136.293 58.4107 136.277 58.3447 136.24 58.2898C136.17 58.1598 135.77 57.6698 135.52 57.3398C136.65 56.2098 137.16 55.8398 136.78 55.5598C136.716 55.5202 136.641 55.5036 136.566 55.5127C136.492 55.5218 136.423 55.5561 136.37 55.6098ZM135.5 54.9998C135.9 54.8198 135.8 54.3598 136.28 53.1598C136.299 53.1165 136.309 53.0698 136.31 53.0225C136.311 52.9751 136.303 52.9281 136.286 52.884C136.269 52.8399 136.243 52.7996 136.21 52.7654C136.178 52.7312 136.138 52.7038 136.095 52.6848C136.052 52.6658 136.005 52.6554 135.958 52.6544C135.91 52.6534 135.863 52.6617 135.819 52.6789C135.775 52.6961 135.735 52.7218 135.701 52.7545C135.667 52.7873 135.639 52.8265 135.62 52.8698C135.06 54.0398 134.62 54.2798 134.8 54.6898C134.822 54.7589 134.858 54.8225 134.906 54.8765C134.955 54.9305 135.014 54.9736 135.08 55.003C135.146 55.0323 135.218 55.0472 135.29 55.0466C135.363 55.0461 135.434 55.0301 135.5 54.9998ZM139.62 56.2698C140.02 56.0898 139.93 55.6198 140.4 54.4298C140.439 54.3423 140.441 54.2431 140.406 54.154C140.371 54.0649 140.303 53.9933 140.215 53.9548C140.128 53.9163 140.028 53.9142 139.939 53.9489C139.85 53.9836 139.779 54.0523 139.74 54.1398C139.28 55.1398 138.74 55.5598 138.91 55.9598C138.933 56.0292 138.97 56.093 139.02 56.1471C139.069 56.2011 139.129 56.2442 139.196 56.2734C139.263 56.3027 139.335 56.3175 139.408 56.3168C139.481 56.3162 139.554 56.3002 139.62 56.2698ZM58.0901 39.4098C57.6101 35.8398 57.7001 35.7598 57.3901 35.7598C39.9101 35.7598 40.8401 35.6398 40.8401 36.0098V39.3198C40.8401 39.4598 40.9501 39.6298 41.0901 39.6298C58.7801 39.6898 58.1501 39.7898 58.0901 39.4098ZM63.6801 35.7598C58.9001 35.7598 59.1801 35.7598 59.0701 35.8398C58.9601 35.9198 58.9801 35.7698 59.4401 39.4698C59.4401 39.7798 59.4901 39.6898 63.6801 39.6898C63.7464 39.6898 63.81 39.6635 63.8569 39.6166C63.9037 39.5697 63.9301 39.5061 63.9301 39.4398V35.9998C63.9275 35.9352 63.9 35.8742 63.8534 35.8294C63.8068 35.7847 63.7447 35.7597 63.6801 35.7598ZM150.28 35.8198L143.94 36.2598C143.909 36.2598 143.878 36.266 143.85 36.2782C143.821 36.2904 143.795 36.3082 143.774 36.3307C143.752 36.3531 143.736 36.3796 143.725 36.4087C143.714 36.4378 143.709 36.4688 143.71 36.4998V40.2798C143.71 40.3461 143.736 40.4097 143.783 40.4566C143.83 40.5035 143.894 40.5298 143.96 40.5298H150.29C150.356 40.5298 150.42 40.5035 150.467 40.4566C150.514 40.4097 150.54 40.3461 150.54 40.2798C150.54 35.9998 150.65 35.8098 150.28 35.8198ZM44.1301 53.6198V50.6698C44.1301 50.6035 44.1037 50.5399 44.0569 50.493C44.01 50.4461 43.9464 50.4198 43.8801 50.4198H41.4301C41.3638 50.4198 41.3002 50.4461 41.2533 50.493C41.2064 50.5399 41.1801 50.6035 41.1801 50.6698C41.1801 53.9798 41.1801 53.8198 41.2601 53.9198C41.3401 54.0198 41.2601 53.9998 43.8901 53.8698C43.9538 53.8649 44.0135 53.8367 44.0578 53.7906C44.1021 53.7445 44.1278 53.6837 44.1301 53.6198ZM58.4101 49.7498C44.7301 50.4598 45.2401 50.3098 45.2401 50.6698C45.2401 53.7298 45.2401 53.5798 45.3101 53.6698C45.3801 53.7598 44.6101 53.7498 58.4201 53.5498C58.4864 53.5498 58.55 53.5235 58.5969 53.4766C58.6437 53.4297 58.6701 53.3661 58.6701 53.2998V49.9998C58.6716 49.9657 58.6659 49.9316 58.6532 49.8999C58.6406 49.8682 58.6213 49.8396 58.5967 49.8159C58.5721 49.7923 58.5427 49.7741 58.5105 49.7627C58.4783 49.7513 58.4441 49.7469 58.4101 49.7498ZM78.6901 49.7398V52.6398C78.6901 52.7061 78.7164 52.7697 78.7633 52.8166C78.8102 52.8635 78.8738 52.8898 78.9401 52.8898C82.3801 52.8898 82.2101 52.8898 82.3201 52.7998C82.4301 52.7098 82.4101 52.7998 81.9601 49.6998C81.9601 49.3998 81.8101 49.4898 78.9601 49.4898C78.9256 49.487 78.8909 49.4914 78.8583 49.5028C78.8256 49.5141 78.7956 49.5321 78.7702 49.5556C78.7449 49.5791 78.7246 49.6076 78.7108 49.6393C78.697 49.671 78.69 49.7052 78.6901 49.7398ZM93.4201 52.8398C93.5301 52.7098 93.5001 52.8398 93.1501 49.8998C93.1501 49.5898 93.6501 49.6998 83.8401 49.5198C83.8046 49.5195 83.7694 49.5269 83.7369 49.5412C83.7045 49.5556 83.6754 49.5768 83.6518 49.6033C83.6281 49.6298 83.6104 49.661 83.5998 49.6949C83.5891 49.7288 83.5858 49.7645 83.5901 49.7998C83.9701 52.9198 83.9001 52.9198 84.2001 52.9198C94.0001 52.9198 93.3101 52.9998 93.4201 52.8398ZM95.2401 52.8898C99.5001 53.0098 99.2401 53.0298 99.3501 52.8898C99.4601 52.7498 99.4301 52.9598 99.4301 49.7098C99.4275 49.6426 99.399 49.579 99.3505 49.5324C99.302 49.4858 99.2373 49.4597 99.1701 49.4598C94.5301 49.6398 94.8001 49.5898 94.7001 49.7098C94.6001 49.8298 94.6301 49.7098 95.0001 52.6398C95.0044 52.703 95.0308 52.7627 95.0747 52.8084C95.1186 52.8541 95.1771 52.8829 95.2401 52.8898ZM45.1901 65.6698C45.7801 61.9698 45.7801 62.1698 45.6701 62.0498C45.5601 61.9298 45.7301 61.9498 42.2301 62.1398C42.1673 62.1448 42.1087 62.1734 42.0661 62.2197C42.0235 62.2661 41.9999 62.3268 42.0001 62.3898V65.8498C42.0001 65.9161 42.0264 65.9797 42.0733 66.0266C42.1202 66.0735 42.1838 66.0998 42.2501 66.0998L45.0001 65.8798C45.0499 65.8695 45.0952 65.8436 45.1294 65.8058C45.1635 65.7681 45.1848 65.7204 45.1901 65.6698ZM49.8701 65.4498C49.8701 61.8198 49.8701 62.0198 49.7901 61.9098C49.7101 61.7998 49.8501 61.8398 47.0801 61.9598C46.7901 61.9598 46.8501 61.9598 46.4601 65.4198C46.4558 65.4551 46.4591 65.4908 46.4698 65.5247C46.4804 65.5586 46.4981 65.5898 46.5218 65.6163C46.5454 65.6428 46.5745 65.6639 46.6069 65.6783C46.6394 65.6927 46.6746 65.7 46.7101 65.6998H49.6201C49.6864 65.6998 49.75 65.6735 49.7969 65.6266C49.8437 65.5797 49.8701 65.5161 49.8701 65.4498ZM54.8701 61.7798C54.8701 65.3998 54.8701 65.1998 54.9401 65.3098C55.0101 65.4198 53.5301 65.4698 79.4901 64.0398C79.5249 64.0375 79.5588 64.0279 79.5896 64.0117C79.6205 63.9955 79.6476 63.973 79.6693 63.9457C79.6909 63.9184 79.7066 63.8869 79.7154 63.8531C79.7241 63.8194 79.7257 63.7842 79.7201 63.7498L79.0801 59.6698C79.0702 59.607 79.0368 59.5504 78.9866 59.5114C78.9365 59.4724 78.8733 59.4539 78.8101 59.4598C53.6801 61.6798 54.8701 61.4198 54.8701 61.7798ZM88.0701 63.3998C88.0701 58.6498 88.0701 58.9298 87.9901 58.8198C87.9101 58.7098 88.3401 58.6898 80.7401 59.4398C80.672 59.4497 80.6103 59.4853 80.5676 59.5392C80.5248 59.5931 80.5043 59.6613 80.5101 59.7298C81.1501 63.9198 81.0701 63.9398 81.3701 63.9398L87.8301 63.6498C87.8946 63.6472 87.9557 63.6197 88.0004 63.5731C88.0452 63.5265 88.0701 63.4644 88.0701 63.3998ZM93.5801 58.9998V63.2798C93.5801 63.3461 93.6064 63.4097 93.6533 63.4566C93.7002 63.5035 93.7638 63.5298 93.8301 63.5298H100.2C100.266 63.5298 100.33 63.5035 100.377 63.4566C100.424 63.4097 100.45 63.3461 100.45 63.2798C100.45 58.3798 100.45 58.7098 100.37 58.5998C100.29 58.4898 100.76 58.4998 93.8201 58.7498C93.7555 58.7524 93.6945 58.7799 93.6497 58.8265C93.605 58.8731 93.58 58.9352 93.5801 58.9998ZM125.56 46.5898C118.56 47.0198 118.79 46.8798 118.79 47.2198V51.0898C118.79 51.1561 118.816 51.2197 118.863 51.2666C118.91 51.3135 118.974 51.3398 119.04 51.3398H125.58C125.646 51.3398 125.71 51.3135 125.757 51.2666C125.804 51.2197 125.83 51.1561 125.83 51.0898C125.83 46.8398 125.94 46.5698 125.56 46.5898ZM47.9001 79.1198C48.2101 74.1798 48.2201 74.5798 48.1201 74.4698C48.0201 74.3598 48.4201 74.3898 42.7001 74.3898C42.6338 74.3898 42.5702 74.4161 42.5233 74.463C42.4764 74.5099 42.4501 74.5735 42.4501 74.6398V79.1098C42.4501 79.1761 42.4764 79.2397 42.5233 79.2866C42.5702 79.3335 42.6338 79.3598 42.7001 79.3598H47.6501C47.714 79.3575 47.7748 79.3318 47.8209 79.2875C47.867 79.2432 47.8952 79.1835 47.9001 79.1198ZM61.0501 74.1098C60.9855 74.1124 60.9245 74.1399 60.8797 74.1865C60.835 74.2331 60.81 74.2952 60.8101 74.3598V78.1498C60.8101 78.2161 60.8364 78.2797 60.8833 78.3266C60.9302 78.3735 60.9938 78.3998 61.0601 78.3998H65.0001C65.0664 78.3998 65.13 78.3735 65.1769 78.3266C65.2237 78.2797 65.2501 78.2161 65.2501 78.1498V74.2098C65.2475 74.1426 65.219 74.079 65.1705 74.0324C65.122 73.9858 65.0573 73.9597 64.9901 73.9598L61.0501 74.1098ZM84.1601 73.3398C65.7901 73.8198 66.7301 73.7698 66.7301 74.1298C66.7301 78.3798 66.7301 78.1298 66.8001 78.2398C66.8701 78.3498 65.8001 78.3598 84.1801 77.9198C84.2438 77.9149 84.3035 77.8867 84.3478 77.8406C84.3921 77.7945 84.4178 77.7337 84.4201 77.6698V73.5898C84.4216 73.5557 84.4159 73.5216 84.4032 73.4899C84.3906 73.4582 84.3713 73.4296 84.3467 73.4059C84.3221 73.3823 84.2927 73.3641 84.2605 73.3527C84.2283 73.3413 84.1941 73.3369 84.1601 73.3398ZM100.12 73.2498C99.7001 77.3698 99.6901 77.1198 99.8001 77.2498C99.9101 77.3798 99.2701 77.3298 107.74 77.3298C107.782 77.3337 107.824 77.3272 107.862 77.3107C107.9 77.2943 107.934 77.2684 107.96 77.2356C107.986 77.2028 108.003 77.164 108.01 77.1228C108.017 77.0816 108.014 77.0393 108 76.9998C107.12 72.8498 107.21 72.8298 106.91 72.8398C99.9101 72.9998 100.15 72.9398 100.12 73.2498ZM109.89 77.2798H112.77C112.833 77.28 112.894 77.2564 112.94 77.2138C112.986 77.1711 113.015 77.1126 113.02 77.0498C113.44 72.4598 113.45 72.7498 113.33 72.6298C113.21 72.5098 113.51 72.5398 108.84 72.8198C108.804 72.823 108.769 72.834 108.738 72.8521C108.707 72.8701 108.68 72.8946 108.659 72.9241C108.638 72.9536 108.623 72.9872 108.617 73.0227C108.61 73.0582 108.611 73.0948 108.62 73.1298C109.72 77.3998 109.62 77.2798 109.89 77.2798ZM71.3601 34.0598C67.6301 36.8498 67.1101 37.1198 67.0901 37.4698C67.0901 37.9998 69.0901 39.7898 69.1601 39.8098C69.2156 39.8402 69.2796 39.8516 69.3422 39.8422C69.4049 39.8328 69.4627 39.8032 69.5069 39.7578C69.5511 39.7125 69.5793 39.6539 69.5871 39.5911C69.5949 39.5282 69.5819 39.4646 69.5501 39.4098C69.2401 38.9998 68.4801 37.9698 68.2401 37.6298C68.7301 37.1498 70.8101 35.3898 71.7901 34.6298C72.1501 34.3498 71.7201 33.7898 71.3601 34.0598ZM85.4801 33.7998C85.4186 33.7516 85.3419 33.7267 85.2638 33.7297C85.1856 33.7327 85.1111 33.7634 85.0535 33.8162C84.9958 33.8691 84.9588 33.9406 84.9491 34.0182C84.9393 34.0958 84.9574 34.1743 85.0001 34.2398C85.8957 35.4357 86.7076 36.692 87.4301 37.9998C87.4301 38.0998 85.9701 39.8798 85.3801 40.7898C85.3396 40.8488 85.3233 40.9211 85.3345 40.9917C85.3456 41.0624 85.3834 41.1261 85.4401 41.1698C85.4967 41.2112 85.565 41.2336 85.6351 41.2336C85.7052 41.2336 85.7735 41.2112 85.8301 41.1698C86.3901 40.5798 87.9801 38.7698 88.2001 38.4298C88.8001 37.4598 86.8801 35.3198 85.4801 33.7998ZM75.5701 34.4898C75.3941 34.4326 75.2078 34.4137 75.0239 34.4342C74.84 34.4548 74.6625 34.5144 74.5035 34.6091C74.3444 34.7038 74.2074 34.8313 74.1017 34.9832C73.9959 35.1351 73.9237 35.3078 73.8901 35.4898C73.8093 36.2637 73.7759 37.0418 73.7901 37.8198H72.7901C72.6911 37.8352 72.6009 37.8855 72.5357 37.9616C72.4705 38.0377 72.4347 38.1346 72.4347 38.2348C72.4347 38.335 72.4705 38.4319 72.5357 38.508C72.6009 38.5841 72.6911 38.6344 72.7901 38.6498L73.8401 38.8098C73.8332 39.3452 73.87 39.8803 73.9501 40.4098C74.0401 40.9498 74.8001 40.8398 74.8601 40.3398C74.9001 39.8606 74.9001 39.379 74.8601 38.8998C75.3301 38.8998 75.7901 38.8998 75.8601 38.4398C75.9301 37.9798 75.3301 37.9098 74.8601 37.8698C74.7701 35.7898 74.9801 35.4798 75.0201 35.4298C75.2901 35.2198 75.7201 35.4298 75.3201 36.0598C75.2733 36.1291 75.2555 36.2139 75.2705 36.2961C75.2854 36.3783 75.3319 36.4514 75.4001 36.4998C75.8801 36.8598 76.6501 34.9998 75.5701 34.4898ZM78.8401 37.6998C78.4073 37.7297 77.9729 37.7297 77.5401 37.6998C77.4552 37.6998 77.3738 37.7335 77.3138 37.7935C77.2538 37.8535 77.2201 37.9349 77.2201 38.0198C77.2201 38.1047 77.2538 38.1861 77.3138 38.2461C77.3738 38.3061 77.4552 38.3398 77.5401 38.3398L78.5401 38.4698C79.0901 38.5498 78.7901 38.3298 78.9401 39.6598C78.9401 39.8004 78.9959 39.9352 79.0953 40.0346C79.1947 40.134 79.3295 40.1898 79.4701 40.1898C79.6106 40.1898 79.7455 40.134 79.8448 40.0346C79.9442 39.9352 80.0001 39.8004 80.0001 39.6598C79.9943 39.3255 79.9709 38.9917 79.9301 38.6598H80.5001C80.6327 38.6598 80.7599 38.6071 80.8536 38.5133C80.9474 38.4196 81.0001 38.2924 81.0001 38.1598C81.0001 38.0272 80.9474 37.9 80.8536 37.8062C80.7599 37.7125 80.6327 37.6598 80.5001 37.6598C79.6701 37.6598 79.7901 37.7198 79.7701 37.5598C79.6901 37.0998 79.6101 36.6298 79.5701 36.1698C79.5701 36.0849 79.5364 36.0035 79.4764 35.9435C79.4163 35.8835 79.335 35.8498 79.2501 35.8498C79.1652 35.8498 79.0838 35.8835 79.0238 35.9435C78.9638 36.0035 78.9301 36.0849 78.9301 36.1698C78.8801 36.8098 78.8401 37.4598 78.8401 37.6998Z" fill="black"/>
<path d="M84 37.4993C83.949 37.0844 83.919 36.6672 83.91 36.2493C83.8965 36.1729 83.8566 36.1037 83.7971 36.0538C83.7377 36.0039 83.6626 35.9766 83.585 35.9766C83.5074 35.9766 83.4323 36.0039 83.3728 36.0538C83.3134 36.1037 83.2734 36.1729 83.26 36.2493C83.26 36.6993 83.2 37.1193 83.16 37.5693C82.777 37.5931 82.393 37.5931 82.01 37.5693C81.921 37.5839 81.8402 37.6296 81.7818 37.6983C81.7235 37.767 81.6914 37.8542 81.6914 37.9443C81.6914 38.0345 81.7235 38.1217 81.7818 38.1904C81.8402 38.259 81.921 38.3048 82.01 38.3193C82.38 38.3193 82.72 38.3793 83.1 38.4093C83.02 39.2893 82.94 40.1793 83.61 40.1793C84.28 40.1793 84.2 39.2793 84.12 38.4493C84.67 38.4493 85.39 38.4493 85.37 37.9293C85.35 37.4093 84.58 37.4493 84 37.4993ZM63.68 43.3693C62.42 43.6993 61.68 44.9493 61.56 46.6993C61.51 48.1493 61.92 49.9893 60.65 50.8393C60.5619 50.8983 60.4931 50.9819 60.4522 51.0797C60.4113 51.1775 60.4001 51.2852 60.42 51.3893C60.6 52.2693 62.18 51.0093 61.86 54.7493C61.7392 55.225 61.7419 55.7236 61.8679 56.1979C61.9939 56.6722 62.239 57.1064 62.58 57.4593C62.8952 57.6827 63.2571 57.8312 63.6384 57.8936C64.0196 57.956 64.41 57.9306 64.78 57.8193C64.8488 57.8017 64.9098 57.7617 64.9534 57.7056C64.997 57.6494 65.0206 57.5804 65.0206 57.5093C65.0206 57.4383 64.997 57.3693 64.9534 57.3131C64.9098 57.257 64.8488 57.217 64.78 57.1993C64.09 57.0993 63.29 57.1993 62.93 56.6093C62.6247 55.8 62.5792 54.9157 62.8 54.0793C62.9002 53.5414 62.8679 52.9871 62.7058 52.4644C62.5438 51.9417 62.2569 51.4663 61.87 51.0793C63.58 48.9893 61.4 44.8393 63.87 43.9993C63.9342 43.9601 63.9836 43.9008 64.0105 43.8305C64.0374 43.7602 64.0402 43.683 64.0184 43.6109C63.9967 43.5389 63.9517 43.4761 63.8904 43.4324C63.8292 43.3886 63.7552 43.3665 63.68 43.3693ZM76.23 44.0793C75.48 43.2493 74.43 43.6493 73.63 43.5093C73.5834 43.4995 73.5353 43.4989 73.4884 43.5077C73.4416 43.5164 73.3969 43.5343 73.357 43.5603C73.3171 43.5863 73.2826 43.6199 73.2557 43.6592C73.2288 43.6985 73.2098 43.7427 73.2 43.7893C73.1901 43.836 73.1896 43.8841 73.1983 43.9309C73.207 43.9777 73.2249 44.0224 73.2509 44.0623C73.2769 44.1023 73.3105 44.1367 73.3498 44.1636C73.3891 44.1906 73.4334 44.2095 73.48 44.2193C74.32 44.3793 75.26 44.1393 75.61 44.8993C76.27 46.3593 74.76 50.1293 76.06 51.7293C74.9 53.1393 76.28 55.3693 75.24 56.3793C74.8498 56.7246 74.3404 56.904 73.82 56.8793C73.7425 56.8656 73.6627 56.8809 73.5958 56.9224C73.5289 56.9638 73.4796 57.0284 73.4573 57.1039C73.435 57.1793 73.4414 57.2604 73.4751 57.3315C73.5088 57.4026 73.5675 57.4588 73.64 57.4893C73.9282 57.5827 74.232 57.6181 74.534 57.5937C74.836 57.5693 75.1301 57.4854 75.3996 57.347C75.6691 57.2085 75.9085 57.0182 76.1042 56.7869C76.2999 56.5556 76.448 56.288 76.54 55.9993C76.6737 55.4135 76.6737 54.8051 76.54 54.2193C76.21 51.8293 77.23 52.4793 77.25 51.7693C77.27 51.0593 76.32 51.6093 76.49 49.5393C76.76 46.8293 77.11 45.0493 76.23 44.0793Z" fill="black"/>
<path d="M66.1699 48.0794C65.8504 48.0588 65.5314 48.1261 65.2475 48.2743C64.9636 48.4224 64.7258 48.6455 64.5599 48.9194C64.3247 49.1388 64.1496 49.415 64.0516 49.7214C63.9535 50.0278 63.9358 50.3542 63.9999 50.6694C64.2198 51.161 64.6024 51.5618 65.0833 51.8041C65.5643 52.0464 66.1141 52.1154 66.6399 51.9994C66.4099 52.9994 66.1399 53.4594 64.8499 53.1994C64.7602 53.1938 64.6714 53.2202 64.5993 53.2738C64.5272 53.3275 64.4765 53.405 64.4561 53.4925C64.4357 53.58 64.447 53.672 64.488 53.752C64.529 53.832 64.597 53.8948 64.6799 53.9294C65.8599 54.2094 66.9799 53.9294 67.3399 52.8094C68.4599 49.9994 67.3399 48.3094 66.1699 48.0794ZM65.8 51.0794C65.15 50.8494 64.99 50.5794 64.94 50.3794C64.89 50.1794 65.0299 49.8194 65.3099 49.4894C65.5899 49.1594 65.77 48.9294 66.05 49.0394C67.11 49.4894 67 51.5294 65.8 51.1094V51.0794ZM70.91 50.5194C69.22 50.2194 68.18 52.2194 68.91 53.1594C69.2608 53.5003 69.7308 53.691 70.22 53.691C70.7091 53.691 71.1791 53.5003 71.5299 53.1594C71.5299 53.4094 71.5299 53.6894 71.5899 53.8394C71.5922 53.9086 71.6201 53.9745 71.6681 54.0244C71.7161 54.0742 71.7809 54.1045 71.8499 54.1094C71.9199 54.1095 71.9871 54.0824 72.0374 54.0339C72.0878 53.9854 72.1174 53.9193 72.12 53.8494C72.12 53.4694 72.3 51.7494 72.26 51.6294C72.1614 51.3366 71.9827 51.0773 71.744 50.881C71.5053 50.6848 71.2163 50.5595 70.91 50.5194ZM71.3099 51.7294C71.3099 52.0294 70.94 52.5094 70.76 52.6094C70.26 52.8794 69.7599 52.8594 69.6399 52.6794C69.5199 52.4994 69.9099 51.3894 70.5199 51.3894C70.7499 51.3894 71.2599 51.4894 71.3099 51.7294ZM130.1 35.8294C128.65 35.5694 127.29 37.4194 127.86 38.9794C127.993 39.4297 128.281 39.8187 128.672 40.0783C129.063 40.3379 129.533 40.4516 130 40.3994C132.76 40.1094 132.19 36.2194 130.1 35.8294ZM130 39.3894C128.73 39.6894 128.28 38.0794 129 37.1494C129.097 37.0092 129.225 36.893 129.374 36.8098C129.523 36.7266 129.689 36.6786 129.86 36.6694C130.099 36.7125 130.325 36.8109 130.519 36.9567C130.714 37.1026 130.872 37.2918 130.98 37.5094C131.099 37.8887 131.063 38.2997 130.879 38.6522C130.695 39.0047 130.379 39.2699 130 39.3894ZM135.78 36.1494C135.69 36.8694 135.11 39.5494 135.1 40.2494C135.114 40.3644 135.165 40.4716 135.247 40.5539C135.328 40.6362 135.434 40.689 135.549 40.704C135.664 40.7189 135.781 40.6951 135.88 40.6363C135.98 40.5775 136.057 40.4871 136.1 40.3794C136.26 39.6794 136.36 36.9094 136.44 36.2194C136.52 35.7694 135.84 35.7194 135.78 36.1494ZM132.74 40.0494C132.679 40.0316 132.614 40.0273 132.551 40.0368C132.488 40.0464 132.428 40.0695 132.374 40.1047C132.321 40.14 132.276 40.1863 132.242 40.2407C132.209 40.295 132.188 40.356 132.18 40.4194C132.09 41.2394 131.11 41.4894 131.42 41.9194C131.463 41.9822 131.527 42.0271 131.601 42.0456C131.675 42.064 131.753 42.0547 131.82 42.0194C132.114 41.886 132.378 41.6926 132.593 41.4515C132.808 41.2104 132.971 40.927 133.07 40.6194C133.087 40.5603 133.091 40.4985 133.083 40.4376C133.076 40.3767 133.056 40.318 133.025 40.2649C132.994 40.2118 132.953 40.1653 132.904 40.1283C132.855 40.0913 132.799 40.0645 132.74 40.0494ZM125.74 39.3194C125.74 39.0967 125.651 38.883 125.494 38.7255C125.336 38.5679 125.123 38.4794 124.9 38.4794C124.677 38.4794 124.464 38.5679 124.306 38.7255C124.148 38.883 124.06 39.0967 124.06 39.3194C124.06 39.5422 124.148 39.7559 124.306 39.9134C124.464 40.0709 124.677 40.1594 124.9 40.1594C125.123 40.1594 125.336 40.0709 125.494 39.9134C125.651 39.7559 125.74 39.5422 125.74 39.3194ZM101.49 52.1894C101.49 52.4122 101.578 52.6259 101.736 52.7834C101.894 52.9409 102.107 53.0294 102.33 53.0294C102.553 53.0294 102.766 52.9409 102.924 52.7834C103.081 52.6259 103.17 52.4122 103.17 52.1894C103.17 51.9667 103.081 51.753 102.924 51.5955C102.766 51.4379 102.553 51.3494 102.33 51.3494C102.107 51.3494 101.894 51.4379 101.736 51.5955C101.578 51.753 101.49 51.9667 101.49 52.1894ZM50.9999 77.9994C51.0128 77.8821 51.0008 77.7634 50.9647 77.651C50.9286 77.5386 50.8692 77.4351 50.7904 77.3472C50.7117 77.2593 50.6152 77.189 50.5075 77.1409C50.3997 77.0928 50.283 77.0679 50.165 77.0679C50.0469 77.0679 49.9302 77.0928 49.8224 77.1409C49.7147 77.189 49.6182 77.2593 49.5395 77.3472C49.4607 77.4351 49.4013 77.5386 49.3652 77.651C49.3291 77.7634 49.3171 77.8821 49.33 77.9994C49.3171 78.1168 49.3291 78.2355 49.3652 78.3479C49.4013 78.4602 49.4607 78.5637 49.5395 78.6516C49.6182 78.7395 49.7147 78.8098 49.8224 78.8579C49.9302 78.9061 50.0469 78.931 50.165 78.931C50.283 78.931 50.3997 78.9061 50.5075 78.8579C50.6152 78.8098 50.7117 78.7395 50.7904 78.6516C50.8692 78.5637 50.9286 78.4602 50.9647 78.3479C51.0008 78.2355 51.0128 78.1168 50.9999 77.9994ZM56.9 77.2894C56.9 77.5122 56.9884 77.7259 57.146 77.8834C57.3035 78.0409 57.5172 78.1294 57.74 78.1294C57.9627 78.1294 58.1764 78.0409 58.3339 77.8834C58.4914 77.7259 58.58 77.5122 58.58 77.2894C58.58 77.0667 58.4914 76.853 58.3339 76.6955C58.1764 76.5379 57.9627 76.4494 57.74 76.4494C57.5172 76.4494 57.3035 76.5379 57.146 76.6955C56.9884 76.853 56.9 77.0667 56.9 77.2894ZM95.8499 75.3294C95.6417 75.3521 95.4491 75.4509 95.3093 75.6069C95.1694 75.7628 95.092 75.9649 95.092 76.1744C95.092 76.3839 95.1694 76.586 95.3093 76.742C95.4491 76.8979 95.6417 76.9967 95.8499 77.0194C96.0582 76.9967 96.2508 76.8979 96.3906 76.742C96.5305 76.586 96.6079 76.3839 96.6079 76.1744C96.6079 75.9649 96.5305 75.7628 96.3906 75.6069C96.2508 75.4509 96.0582 75.3521 95.8499 75.3294ZM105.62 52.6694C105.731 52.6722 105.841 52.6523 105.945 52.6111C106.048 52.5698 106.141 52.5081 106.22 52.4295C106.299 52.351 106.36 52.2573 106.402 52.1541C106.443 52.051 106.463 51.9405 106.46 51.8294C106.437 51.6212 106.338 51.4286 106.183 51.2887C106.027 51.1489 105.824 51.0715 105.615 51.0715C105.405 51.0715 105.203 51.1489 105.047 51.2887C104.891 51.4286 104.793 51.6212 104.77 51.8294C104.767 51.9414 104.787 52.0527 104.829 52.1565C104.871 52.2604 104.934 52.3545 105.013 52.4332C105.093 52.5119 105.188 52.5735 105.292 52.6141C105.397 52.6547 105.508 52.6736 105.62 52.6694ZM51.72 30.1494C51.9001 30.1284 52.0663 30.0419 52.1869 29.9064C52.3074 29.7709 52.3741 29.5958 52.3741 29.4144C52.3741 29.233 52.3074 29.058 52.1869 28.9225C52.0663 28.787 51.9001 28.7005 51.72 28.6794C51.5398 28.7005 51.3736 28.787 51.253 28.9225C51.1324 29.058 51.0658 29.233 51.0658 29.4144C51.0658 29.5958 51.1324 29.7709 51.253 29.9064C51.3736 30.0419 51.5398 30.1284 51.72 30.1494ZM55.4099 30.1494C55.5901 30.1284 55.7563 30.0419 55.8769 29.9064C55.9975 29.7709 56.0641 29.5958 56.0641 29.4144C56.0641 29.233 55.9975 29.058 55.8769 28.9225C55.7563 28.787 55.5901 28.7005 55.4099 28.6794C55.2298 28.7005 55.0636 28.787 54.943 28.9225C54.8224 29.058 54.7558 29.233 54.7558 29.4144C54.7558 29.5958 54.8224 29.7709 54.943 29.9064C55.0636 30.0419 55.2298 30.1284 55.4099 30.1494ZM59.4 30.1394C59.5801 30.1184 59.7463 30.0319 59.8669 29.8964C59.9874 29.7609 60.0541 29.5858 60.0541 29.4044C60.0541 29.223 59.9874 29.048 59.8669 28.9125C59.7463 28.777 59.5801 28.6905 59.4 28.6694C59.2198 28.6905 59.0536 28.777 58.933 28.9125C58.8124 29.048 58.7458 29.223 58.7458 29.4044C58.7458 29.5858 58.8124 29.7609 58.933 29.8964C59.0536 30.0319 59.2198 30.1184 59.4 30.1394ZM55.7299 71.2494C55.7561 71.1965 55.7679 71.1376 55.7644 71.0786C55.7608 71.0197 55.742 70.9626 55.7097 70.9132C55.6774 70.8637 55.6327 70.8236 55.5802 70.7966C55.5276 70.7696 55.469 70.7568 55.4099 70.7594C55.1499 70.7594 55.1 71.0294 54.9 71.4194C53.51 74.1794 51.6399 77.9194 51.4999 78.4194C51.4627 78.5253 51.4673 78.6413 51.5128 78.7439C51.5583 78.8465 51.6413 78.9278 51.7447 78.9712C51.8482 79.0146 51.9643 79.0169 52.0694 78.9775C52.1744 78.9382 52.2605 78.8601 52.31 78.7594C52.66 78.2094 55.3799 71.9194 55.7299 71.2494ZM58.56 70.3294C58.5302 70.2775 58.4872 70.2343 58.4354 70.2043C58.3836 70.1743 58.3248 70.1585 58.2649 70.1585C58.2051 70.1585 58.1463 70.1743 58.0945 70.2043C58.0427 70.2343 57.9997 70.2775 57.97 70.3294C56.32 73.7594 53.8 78.6494 53.7 79.0294C53.6852 79.0999 53.6862 79.1728 53.7029 79.2429C53.7196 79.313 53.7515 79.3785 53.7964 79.4348C53.8412 79.4912 53.898 79.5369 53.9626 79.5688C54.0271 79.6007 54.0979 79.618 54.1699 79.6194C54.5599 79.6194 54.6899 79.4894 58.0899 71.7594C58.5699 70.7094 58.71 70.5594 58.56 70.3294ZM88.8099 78.7094C87.8343 77.2937 87.2781 75.6313 87.2056 73.9135C87.1331 72.1957 87.5471 70.4923 88.4 68.9994C88.4477 68.9278 88.465 68.8402 88.4481 68.7558C88.4313 68.6714 88.3816 68.5972 88.3099 68.5494C88.2383 68.5017 88.1507 68.4844 88.0663 68.5012C87.9819 68.5181 87.9077 68.5678 87.86 68.6394C86.7018 70.1541 86.1158 72.0292 86.2054 73.9338C86.2951 75.8385 87.0546 77.6502 88.3499 79.0494C88.4015 79.0869 88.4637 79.1069 88.5275 79.1066C88.5912 79.1063 88.6532 79.0858 88.7044 79.0479C88.7557 79.01 88.7936 78.9568 88.8125 78.8959C88.8315 78.8351 88.8306 78.7697 88.8099 78.7094Z" fill="black"/>
<path d="M97.1198 67.9395C96.4198 68.2095 97.8998 69.0395 97.6698 73.8095C97.4698 77.8095 95.9798 79.0795 96.2198 79.4795C96.2456 79.5166 96.28 79.5469 96.32 79.5679C96.3601 79.5888 96.4046 79.5998 96.4498 79.5998C96.495 79.5998 96.5395 79.5888 96.5796 79.5679C96.6197 79.5469 96.654 79.5166 96.6798 79.4795C97.7465 77.8011 98.3838 75.886 98.5355 73.9032C98.6873 71.9203 98.3487 69.9306 97.5498 68.1095C97.5147 68.0305 97.45 67.9684 97.3696 67.9366C97.2892 67.9048 97.1995 67.9058 97.1198 67.9395ZM89.0798 73.6195C87.4598 74.7795 88.8298 76.6195 90.4798 76.1595V78.8695C90.4798 79.2795 90.0598 79.4895 89.8098 79.1395C89.7618 79.0747 89.691 79.0305 89.6118 79.0157C89.5325 79.0008 89.4506 79.0164 89.3824 79.0594C89.3141 79.1024 89.2646 79.1695 89.2438 79.2474C89.2229 79.3253 89.2322 79.4082 89.2698 79.4795C89.3892 79.6754 89.5678 79.8283 89.7799 79.9159C89.9919 80.0035 90.2264 80.0213 90.4492 79.9667C90.6721 79.9121 90.8717 79.7879 91.0193 79.6122C91.1668 79.4365 91.2546 79.2184 91.2698 78.9895C91.2698 78.6695 91.5798 74.2895 91.1698 73.7595C91.0426 73.6118 90.8873 73.4908 90.713 73.4037C90.5386 73.3166 90.3486 73.265 90.1541 73.2519C89.9596 73.2389 89.7645 73.2647 89.5801 73.3278C89.3956 73.3909 89.2256 73.49 89.0798 73.6195ZM90.2498 74.2495C90.3582 74.3604 90.426 74.5046 90.4423 74.6589C90.4586 74.8131 90.4225 74.9683 90.3398 75.0995C90.1198 75.3395 89.3398 75.2595 89.2298 74.8595C89.1198 74.4595 89.8898 73.9995 90.2498 74.2495ZM93.2898 73.4495C92.9457 73.5182 92.6335 73.6974 92.4007 73.9599C92.1679 74.2224 92.0272 74.5538 92 74.9036C91.9728 75.2534 92.0607 75.6025 92.2502 75.8978C92.4397 76.1931 92.7205 76.4184 93.0498 76.5395C93.3222 76.6414 93.6202 76.6527 93.8995 76.5716C94.1788 76.4905 94.4244 76.3214 94.5998 76.0895C94.6356 76.0266 94.6497 75.9538 94.64 75.8822C94.6303 75.8106 94.5974 75.7441 94.5463 75.693C94.4952 75.6419 94.4287 75.6089 94.3571 75.5993C94.2855 75.5896 94.2127 75.6037 94.1498 75.6395C93.8798 75.7995 92.9298 75.7995 92.8598 75.0195C92.8435 74.8648 92.8751 74.7088 92.9502 74.5726C93.0253 74.4364 93.1405 74.3266 93.28 74.2579C93.4196 74.1892 93.5768 74.165 93.7306 74.1885C93.8844 74.212 94.0272 74.2822 94.1398 74.3895C94.2101 74.4558 94.3038 74.4914 94.4004 74.4886C94.497 74.4858 94.5885 74.4448 94.6548 74.3745C94.7211 74.3042 94.7568 74.2105 94.754 74.1139C94.7512 74.0173 94.7101 73.9258 94.6398 73.8595C94.4642 73.6878 94.2499 73.5609 94.0149 73.4896C93.7799 73.4182 93.5312 73.4045 93.2898 73.4495ZM45.6498 30.3995C45.7487 30.4318 45.8554 30.4317 45.9542 30.3993C46.0531 30.367 46.1391 30.304 46.1998 30.2195C46.4298 29.9095 47.0898 27.0695 47.2898 26.3895C47.3163 26.3033 47.3075 26.2101 47.2653 26.1304C47.2232 26.0507 47.151 25.991 47.0648 25.9645C46.9786 25.938 46.8854 25.9468 46.8057 25.989C46.726 26.0312 46.6663 26.1033 46.6398 26.1895C45.6798 28.9995 44.8898 30.1595 45.6498 30.3995ZM75.1098 122.539C74.2898 123.468 73.4149 124.346 72.4898 125.169C72.4387 125.22 72.3981 125.28 72.3704 125.346C72.3427 125.412 72.3285 125.483 72.3285 125.554C72.3285 125.626 72.3427 125.697 72.3704 125.763C72.3981 125.829 72.4387 125.889 72.4898 125.939C73.2598 126.629 74.0698 127.259 74.8098 127.939C74.8642 127.982 74.931 128.005 74.9998 128.005C75.0686 128.005 75.1355 127.982 75.1898 127.939C75.2329 127.887 75.2565 127.822 75.2565 127.754C75.2565 127.687 75.2329 127.621 75.1898 127.569C74.6598 126.879 74.1298 126.199 73.5698 125.569C74.3412 124.768 75.0499 123.909 75.6898 122.999C75.9998 122.609 75.3898 122.179 75.1098 122.539ZM109 126.229C109.12 126.229 109 126.229 110.29 125.379C112.68 123.699 112.92 123.589 112.85 123.109C112.76 122.409 111.85 122.299 109.4 121.109C109.307 121.058 109.197 121.045 109.095 121.074C108.993 121.103 108.907 121.172 108.855 121.264C108.803 121.357 108.79 121.467 108.819 121.569C108.849 121.671 108.917 121.758 109.01 121.809C109.47 122.069 110.92 122.979 111.48 123.319C110.03 124.679 108.8 125.809 108.8 125.809C108.774 125.848 108.758 125.894 108.754 125.94C108.751 125.987 108.76 126.034 108.78 126.077C108.8 126.119 108.831 126.155 108.87 126.182C108.908 126.209 108.953 126.225 109 126.229ZM101.78 124.519C103.12 124.519 104.39 124.299 105.68 124.239C105.773 124.239 105.862 124.203 105.927 124.137C105.993 124.071 106.03 123.982 106.03 123.889C106.03 123.797 105.993 123.708 105.927 123.642C105.862 123.576 105.773 123.539 105.68 123.539C104.37 123.539 103.12 123.329 101.78 123.419C101.634 123.419 101.494 123.477 101.391 123.581C101.288 123.684 101.23 123.824 101.23 123.969C101.23 124.115 101.288 124.255 101.391 124.358C101.494 124.462 101.634 124.519 101.78 124.519ZM94.3498 124.799C94.9898 124.799 97.7498 124.509 98.0498 124.489C98.14 124.489 98.2265 124.454 98.2902 124.39C98.354 124.326 98.3898 124.24 98.3898 124.149C98.3898 124.059 98.354 123.973 98.2902 123.909C98.2265 123.845 98.14 123.809 98.0498 123.809C97.7498 123.809 94.9898 123.629 94.3498 123.709C94.218 123.727 94.0971 123.792 94.0096 123.893C93.922 123.993 93.8738 124.121 93.8738 124.254C93.8738 124.388 93.922 124.516 94.0096 124.616C94.0971 124.716 94.218 124.782 94.3498 124.799ZM85.2898 124.159C85.2202 124.161 85.1515 124.176 85.0877 124.204C85.0239 124.231 84.9662 124.272 84.918 124.322C84.8697 124.372 84.8317 124.431 84.8063 124.496C84.7809 124.561 84.7685 124.63 84.7698 124.699C84.7698 125.289 85.3798 125.259 85.7698 125.259C86.918 125.207 88.0627 125.097 89.1998 124.929C89.2888 124.915 89.3696 124.869 89.428 124.8C89.4863 124.732 89.5184 124.645 89.5184 124.554C89.5184 124.464 89.4863 124.377 89.428 124.308C89.3696 124.24 89.2888 124.194 89.1998 124.179C88.5298 124.229 85.9298 124.139 85.2898 124.159ZM81.2598 124.709C80.5198 124.709 77.6998 124.579 76.9798 124.709C76.8472 124.709 76.72 124.762 76.6263 124.856C76.5325 124.95 76.4798 125.077 76.4798 125.209C76.4798 125.342 76.5325 125.469 76.6263 125.563C76.72 125.657 76.8472 125.709 76.9798 125.709C77.7298 125.809 80.5298 125.529 81.2598 125.499C81.3646 125.499 81.4651 125.458 81.5391 125.384C81.6132 125.31 81.6548 125.209 81.6548 125.104C81.6548 125 81.6132 124.899 81.5391 124.825C81.4651 124.751 81.3646 124.709 81.2598 124.709ZM42.5798 15.2995C42.348 15.0103 42.0465 14.7847 41.7036 14.6438C41.3608 14.503 40.9878 14.4514 40.6196 14.494C40.2514 14.5366 39.9 14.672 39.5984 14.8874C39.2968 15.1028 39.0548 15.3913 38.895 15.7258C38.7353 16.0603 38.6631 16.4298 38.6852 16.7998C38.7072 17.1698 38.8228 17.5282 39.0212 17.8413C39.2195 18.1544 39.494 18.4121 39.8191 18.5902C40.1442 18.7683 40.5092 18.8609 40.8798 18.8595C41.2952 18.866 41.7037 18.7531 42.0569 18.5342C42.41 18.3153 42.6928 17.9997 42.8719 17.6248C43.0509 17.2499 43.1185 16.8315 43.0668 16.4193C43.015 16.0071 42.846 15.6185 42.5798 15.2995ZM42.0298 17.2995C41.9038 17.5346 41.7074 17.7245 41.4682 17.8425C41.229 17.9606 40.9588 18.001 40.6955 17.958C40.4322 17.9151 40.189 17.7909 39.9997 17.6029C39.8104 17.4149 39.6846 17.1725 39.6398 16.9095C39.5918 16.7208 39.5868 16.5238 39.6251 16.333C39.6634 16.1421 39.7441 15.9623 39.8612 15.8068C39.9783 15.6513 40.1288 15.5241 40.3017 15.4346C40.4745 15.345 40.6653 15.2954 40.8598 15.2895C41.0866 15.3086 41.3054 15.3828 41.497 15.5055C41.6887 15.6282 41.8476 15.7959 41.9599 15.9938C42.0722 16.1918 42.1345 16.4142 42.1415 16.6417C42.1484 16.8692 42.0998 17.095 41.9998 17.2995H42.0298ZM51.9998 15.5495C51.7116 15.1727 51.3079 14.9008 50.8504 14.7753C50.3929 14.6498 49.907 14.6777 49.4669 14.8546C49.0267 15.0316 48.6567 15.3479 48.4135 15.7551C48.1702 16.1623 48.067 16.6381 48.1198 17.1095C48.1645 17.5818 48.3586 18.0275 48.6739 18.382C48.9893 18.7364 49.4095 18.981 49.8734 19.0803C50.3373 19.1795 50.8208 19.1282 51.2536 18.9339C51.6863 18.7395 52.0458 18.4122 52.2798 17.9995C52.4549 17.603 52.5213 17.1671 52.4721 16.7365C52.4229 16.3059 52.2599 15.8962 51.9998 15.5495ZM49.5998 15.7595C49.8497 15.5952 50.1498 15.525 50.4466 15.5617C50.7434 15.5983 51.0175 15.7393 51.2198 15.9595C51.4062 16.1789 51.5259 16.4471 51.5649 16.7324C51.6038 17.0176 51.5605 17.3081 51.4398 17.5695C51.3121 17.7941 51.12 17.9751 50.8882 18.0892C50.6564 18.2034 50.3957 18.2452 50.1398 18.2095C49.8746 18.1646 49.6286 18.042 49.433 17.8572C49.2374 17.6725 49.1011 17.4339 49.0411 17.1716C48.9812 16.9093 49.0003 16.6352 49.0962 16.3838C49.1921 16.1325 49.3604 15.9152 49.5798 15.7595H49.5998ZM61.3898 15.8095C61.1582 15.5206 60.8572 15.2952 60.5148 15.1543C60.1724 15.0134 59.7999 14.9616 59.4321 15.0037C59.0642 15.0458 58.7131 15.1805 58.4114 15.3952C58.1098 15.6099 57.8675 15.8975 57.7072 16.2313C57.5469 16.565 57.4738 16.9339 57.4948 17.3036C57.5158 17.6732 57.6301 18.0315 57.8271 18.345C58.0242 18.6584 58.2975 18.9168 58.6215 19.096C58.9455 19.2751 59.3096 19.3692 59.6798 19.3695C60.0961 19.3779 60.5059 19.2664 60.8606 19.0484C61.2152 18.8303 61.4996 18.5148 61.6799 18.1395C61.8601 17.7642 61.9286 17.345 61.8772 16.9319C61.8258 16.5187 61.6566 16.1291 61.3898 15.8095ZM60.8298 17.8095C60.7112 17.9998 60.5456 18.1566 60.349 18.2646C60.1524 18.3726 59.9313 18.4284 59.707 18.4264C59.4827 18.4245 59.2626 18.3651 59.0679 18.2537C58.8731 18.1424 58.7102 17.9828 58.5948 17.7905C58.4794 17.5981 58.4153 17.3793 58.4087 17.1551C58.4021 16.9309 58.4532 16.7087 58.557 16.5099C58.6609 16.311 58.8141 16.1422 59.002 16.0196C59.1898 15.8969 59.406 15.8246 59.6298 15.8095C59.8615 15.8176 60.0874 15.8835 60.2871 16.0012C60.4868 16.1189 60.6539 16.2847 60.7732 16.4835C60.8924 16.6822 60.9601 16.9077 60.97 17.1393C60.9799 17.3709 60.9317 17.6013 60.8298 17.8095Z" fill="black"/>
<path d="M146.67 32.4695C146.955 31.8869 147.087 31.2411 147.052 30.5934C147.017 29.9458 146.816 29.3179 146.47 28.7695C145.66 27.5695 144.03 27.6095 142.72 27.6395C138.67 27.7395 43.6001 24.8295 43.5001 24.8195C42.9203 24.6796 42.309 24.7654 41.7901 25.0595C40.2001 26.2195 40.2501 30.3495 42.0401 31.3895C42.5694 31.628 43.1564 31.7079 43.7301 31.6195L143.57 34.2895C144.202 34.2874 144.821 34.1179 145.366 33.7981C145.911 33.4784 146.361 33.0199 146.67 32.4695ZM49.1501 26.0895C48.6059 27.3583 48.1547 28.6651 47.8001 29.9995C47.7974 30.0589 47.8068 30.1183 47.8277 30.174C47.8486 30.2297 47.8806 30.2806 47.9217 30.3236C47.9628 30.3666 48.0123 30.4008 48.067 30.4242C48.1217 30.4475 48.1806 30.4595 48.2401 30.4595C48.6901 30.4595 48.7701 30.0495 49.4501 27.5895C49.8201 26.2095 49.9201 26.1695 49.7401 25.9795C64.0701 26.4295 143.52 28.6395 143.68 28.6495C144.91 28.6495 145.58 29.0295 145.85 29.7395C146.054 30.2184 146.11 30.7471 146.012 31.2583C145.914 31.7694 145.667 32.2398 145.3 32.6095C144.858 32.9193 144.36 33.1388 143.833 33.2555C143.306 33.3722 142.761 33.3837 142.23 33.2895C136.4 33.0895 42.8001 30.6995 42.7001 30.6795C41.3901 30.3595 41.2801 27.2695 42.0801 26.0595C42.3701 25.6295 42.8101 25.6495 43.5001 25.7395C50.0001 26.0595 49.2401 25.8295 49.1501 26.0895ZM82.0701 85.5395C82.0701 84.5395 82.9101 84.9795 46.0701 85.9695C45.8587 85.9544 45.6468 85.9902 45.4519 86.0737C45.2571 86.1572 45.0851 86.286 44.9501 86.4495C44.5701 87.0195 45.2301 117.659 45.2501 117.949C45.2553 118.076 45.3092 118.195 45.4005 118.283C45.4919 118.371 45.6136 118.42 45.7401 118.419C45.7401 118.419 49.6701 118.279 53.1101 118.179C83.3001 117.309 82.9101 116.879 82.8801 116.469C82.8001 115.699 82.0801 86.0695 82.0701 85.5395ZM45.7801 87.1395C45.7801 87.0695 45.9701 87.0095 46.0701 86.9995C47.4001 86.9995 79.8901 85.9995 81.0701 85.9995C81.1601 88.9995 82.0001 114.519 82.0701 116.069C76.9301 116.399 49.9801 117.349 46.2401 117.429C45.6501 109.259 45.7201 87.7395 45.7801 87.1395Z" fill="black"/>
<path d="M47.4901 114.84C48.2701 114.27 62.9201 101.95 63.4101 101.55C67.2801 104.64 78.1601 113.33 80.4801 115.21C80.8401 115.5 81.3001 114.98 80.9501 114.68C76.8101 111.24 66.2901 102.68 64.1601 100.92C65.1601 100.14 77.7301 89.6197 79.3301 88.3297C79.6701 88.0397 79.2301 87.5397 78.8801 87.8097C74.7501 91.1297 65.0001 98.9997 63.3801 100.31C60.2801 97.8597 50.2701 90.1497 47.8601 88.4097C47.7932 88.3708 47.7145 88.3575 47.6385 88.3721C47.5625 88.3868 47.4945 88.4285 47.4469 88.4895C47.3993 88.5505 47.3754 88.6267 47.3797 88.7039C47.3839 88.7812 47.4161 88.8543 47.4701 88.9097C50.9001 91.7097 62.3701 100.73 62.6301 100.91C59.3501 103.64 48.0501 113.15 46.9901 114.22C46.9078 114.286 46.8553 114.382 46.8441 114.487C46.8328 114.592 46.8638 114.697 46.9301 114.78C46.9964 114.862 47.0926 114.914 47.1976 114.926C47.3027 114.937 47.4078 114.906 47.4901 114.84ZM119.15 111.33C115.84 108.61 108.96 102.63 107.65 101.49C110.58 98.9097 119.65 90.4897 121.47 88.8297C121.538 88.766 121.577 88.6781 121.58 88.5853C121.583 88.4925 121.549 88.4023 121.485 88.3347C121.421 88.2671 121.333 88.2275 121.241 88.2247C121.148 88.2219 121.058 88.256 120.99 88.3197C119.64 89.5697 107.33 100.49 106.93 100.85C105.31 99.4397 92.5601 88.1697 92.0601 87.7497C91.9975 87.7012 91.9192 87.6776 91.8403 87.6835C91.7614 87.6894 91.6875 87.7242 91.6328 87.7814C91.5781 87.8386 91.5465 87.914 91.5442 87.9931C91.5418 88.0722 91.5689 88.1494 91.6201 88.2097C92.4501 89.0597 103.94 99.6297 106.13 101.56C104.96 102.56 93.3701 112.81 92.1301 113.91C92.0838 113.946 92.0507 113.997 92.0359 114.054C92.0211 114.111 92.0254 114.171 92.048 114.226C92.0707 114.28 92.1105 114.325 92.1614 114.355C92.2124 114.385 92.2716 114.397 92.3301 114.39C92.8001 114.39 105.9 102.99 106.82 102.19C109.01 104.04 116.71 110.31 118.65 111.86C119.05 112.14 119.51 111.63 119.15 111.33ZM20.5401 160.2C20.5401 160.2 47.7701 158.64 48.2601 158.6C48.3381 158.594 48.4138 158.57 48.4809 158.53C48.5481 158.49 48.6048 158.434 48.6467 158.368C48.6885 158.302 48.7142 158.227 48.7218 158.149C48.7293 158.071 48.7184 157.993 48.6901 157.92C48.7401 151.32 49.4301 138.92 49.0101 138.28C48.874 138.113 48.6949 137.987 48.4922 137.914C48.2895 137.842 48.0709 137.827 47.8601 137.87L20.6901 139.21C20.5627 139.215 20.442 139.268 20.3528 139.359C20.2636 139.45 20.2125 139.572 20.2101 139.7C20.0401 143.63 19.6901 159.42 19.7801 159.7C19.8264 159.86 19.9284 159.998 20.0678 160.09C20.2071 160.182 20.3746 160.221 20.5401 160.2ZM48.1701 139.08C48.1701 139.9 48.1201 143.41 47.7901 157.62C45.0401 157.73 21.3501 159.14 20.7901 159.17C20.7901 157.06 21.1301 142.55 21.2201 140.17L47.9201 138.83C47.9856 138.832 48.0477 138.859 48.0941 138.906C48.1404 138.952 48.1676 139.014 48.1701 139.08ZM57.4101 157.44C57.5401 157.91 57.9901 157.93 58.4601 157.89C87.5801 155.63 86.0801 156.42 86.2801 156.05C86.3601 155.89 86.2101 156.71 86.5601 146.25C86.5601 144.96 86.9501 136.48 86.6301 135.99C86.4954 135.821 86.3165 135.694 86.1134 135.621C85.9102 135.549 85.6909 135.534 85.4801 135.58C85.3401 135.58 59.7001 136.84 58.3201 136.92C58.1909 136.922 58.0678 136.975 57.9764 137.066C57.8851 137.157 57.8326 137.281 57.8301 137.41C57.6701 141.1 57.3101 157.1 57.4101 157.44ZM58.4101 156.88C58.4101 154.71 58.7601 140.17 58.8401 137.88L85.6801 136.54C85.9101 136.54 85.9101 135.07 85.4401 155.31C82.6601 155.43 59.0001 156.84 58.3801 156.88H58.4101ZM92.1401 155C92.2801 155.46 92.7201 155.48 93.2001 155.44C122.32 153.17 120.82 153.97 121.02 153.6C121.1 153.45 120.95 154.21 121.3 143.81C121.3 142.49 121.69 134.05 121.37 133.54C121.235 133.371 121.056 133.244 120.853 133.171C120.65 133.099 120.431 133.084 120.22 133.13L93.0601 134.47C92.9309 134.472 92.8077 134.525 92.7164 134.616C92.6251 134.707 92.5726 134.831 92.5701 134.96C92.4001 138.84 92.0501 154.63 92.1401 155ZM93.5501 135.45L120.39 134.11C120.62 134.11 120.61 132.66 120.15 152.88C117.4 152.98 93.7001 154.39 93.1501 154.43C93.1201 154.29 93.4601 137.86 93.5501 135.41V135.45Z" fill="black"/>
<path d="M46.74 139.56C43.74 141.89 35.91 147.46 34.8 148.27C33.89 147.72 23.64 141.58 22.53 140.89C22.4584 140.844 22.3713 140.828 22.2878 140.845C22.2044 140.863 22.1314 140.913 22.085 140.985C22.0386 141.057 22.0225 141.144 22.0404 141.227C22.0582 141.311 22.1084 141.384 22.18 141.43C23.67 142.43 32.02 147.73 33.91 148.91C33.31 149.34 23.04 156.73 22.43 157.23C22.3775 157.272 22.3394 157.329 22.3213 157.394C22.3033 157.459 22.306 157.528 22.3293 157.591C22.3525 157.654 22.3951 157.708 22.4508 157.746C22.5066 157.783 22.5728 157.802 22.64 157.8C22.98 157.8 34.64 149.71 34.91 149.51C37.26 150.88 45.69 155.57 46.62 156.06C46.6797 156.098 46.7514 156.113 46.8214 156.102C46.8914 156.091 46.955 156.055 47 156C47.0295 155.932 47.0356 155.855 47.0176 155.783C46.9995 155.711 46.9582 155.647 46.9 155.6C43.18 153.4 39.42 151.12 35.78 148.91C37.95 147.3 47.14 140.13 47.14 140.13C47.2156 140.077 47.267 139.996 47.283 139.905C47.2989 139.814 47.2781 139.721 47.225 139.645C47.172 139.569 47.0911 139.518 47.0001 139.502C46.9092 139.486 46.8156 139.507 46.74 139.56ZM84.87 137C84.09 137.55 72.08 145.89 71.17 146.54C69 145.05 61.94 140.13 60.35 138.9C60.01 138.64 59.6 139.17 59.93 139.43C62.62 141.55 68.78 146.12 70.27 147.19C68.04 148.85 60.54 154.03 59.11 155.45C59.0743 155.484 59.0497 155.529 59.0392 155.577C59.0287 155.625 59.0328 155.676 59.051 155.722C59.0692 155.768 59.1007 155.808 59.1415 155.836C59.1823 155.864 59.2305 155.879 59.28 155.88C59.42 155.88 60.15 155.47 71.11 147.77C73.56 149.39 81.48 154.11 83.26 155.06C83.3149 155.083 83.3763 155.086 83.4331 155.068C83.4899 155.05 83.5383 155.012 83.5697 154.961C83.601 154.911 83.6133 154.85 83.6042 154.791C83.5951 154.733 83.5652 154.679 83.52 154.64C82.04 153.64 72.75 147.64 72.02 147.12C73.82 145.85 84.5 138.01 85.22 137.49C85.285 137.444 85.3289 137.373 85.342 137.295C85.3551 137.216 85.3364 137.135 85.29 137.07C85.2436 137.005 85.1733 136.961 85.0945 136.948C85.0158 136.935 84.935 136.954 84.87 137ZM107.33 143.66C109.81 145.32 117.33 150.57 118.95 151.81C118.983 151.838 119.022 151.86 119.064 151.873C119.106 151.886 119.15 151.891 119.193 151.887C119.237 151.884 119.279 151.871 119.318 151.851C119.357 151.831 119.392 151.804 119.42 151.77C119.448 151.737 119.47 151.698 119.483 151.656C119.496 151.614 119.501 151.57 119.497 151.527C119.494 151.483 119.481 151.441 119.461 151.402C119.441 151.363 119.413 151.328 119.38 151.3C118.09 150.3 110.14 144.36 108.27 143.04C109.27 142.39 118.48 136.04 119.58 135.31C119.618 135.286 119.651 135.255 119.677 135.219C119.703 135.183 119.722 135.141 119.732 135.098C119.743 135.054 119.744 135.009 119.737 134.965C119.73 134.92 119.714 134.878 119.69 134.84C119.666 134.802 119.635 134.769 119.599 134.743C119.563 134.717 119.521 134.698 119.478 134.688C119.434 134.677 119.389 134.676 119.345 134.683C119.3 134.69 119.258 134.706 119.22 134.73C118.32 135.32 107.82 141.97 107.22 142.36C105.15 141.06 98.22 137 96.36 136.14C96.2884 136.106 96.2061 136.101 96.1311 136.127C96.0561 136.154 95.9946 136.208 95.96 136.28C95.74 136.7 95.79 136.4 106.28 142.98C103.35 144.98 94.28 151.41 93.36 152.13C93.3098 152.182 93.2771 152.249 93.2664 152.32C93.2556 152.392 93.2674 152.465 93.3 152.53C93.3428 152.593 93.408 152.637 93.4822 152.654C93.5565 152.671 93.6344 152.659 93.7 152.62C94.78 152 107.33 143.66 107.33 143.66Z" fill="black"/>
<path d="M195 172.65C193.9 172.4 188 171.6 157.13 167.05C156.478 166.133 155.972 165.121 155.63 164.05C155.5 161.05 154.73 151.53 154.48 149.67C153.98 145.97 152.97 142.27 153.05 138.46C154.12 138.23 155.18 137.98 156.2 137.7C156.287 137.672 156.363 137.617 156.417 137.544C156.471 137.47 156.5 137.381 156.5 137.29C156.513 133.551 156.239 129.816 155.68 126.12C157.36 124.26 157.3 120.76 157.24 117.91C157.24 115.31 157.33 113.49 157.32 95.9096C160.39 93.4996 159.69 88.1496 159.32 85.4296C160.21 84.8096 160.25 84.8096 160.26 84.6596C160.183 83.6846 159.982 82.7234 159.66 81.7996C159.448 81.3148 159.138 80.879 158.75 80.5196C159.09 80.0196 159.15 79.9796 159.08 79.8196C158.51 78.6496 158.08 77.8196 157.52 76.9296V68.1596C159.315 68.3572 161.123 67.9299 162.64 66.9496C162.695 66.9205 162.737 66.872 162.758 66.8135C162.779 66.755 162.778 66.6908 162.754 66.6333C162.73 66.5759 162.686 66.5294 162.63 66.5028C162.574 66.4762 162.509 66.4715 162.45 66.4896C161.09 66.8196 160.11 66.6596 159.53 65.9996C158.1 64.3996 159.26 60.1796 159.83 58.6796C161.17 54.9396 162.83 54.8096 163.23 52.1196C163.457 50.181 163.027 48.2223 162.008 46.5576C160.989 44.8929 159.44 43.6188 157.61 42.9396C157.61 42.8596 157.88 27.6896 157.89 27.2196C157.99 22.9096 158.12 17.0096 153.3 15.0596C152.213 14.6957 151.064 14.5496 149.92 14.6296C149.71 14.6296 44.05 11.2496 43.31 11.1996C41.3137 10.9702 39.2956 11.0106 37.31 11.3196C32.31 12.3996 32.24 17.3196 32.21 20.5196C32.21 20.7896 32.27 48.7096 32.31 75.2796C28.94 75.1996 15.51 75.1796 12.7 75.2796C10.33 75.2796 8.26003 75.4496 6.94003 76.4596C6.29553 76.9691 5.77265 77.6158 5.4094 78.3527C5.04614 79.0896 4.85164 79.8982 4.84003 80.7196C4.84003 90.5096 5.84003 149.25 5.30003 168.81C5.23003 171.35 6.37003 173.35 8.30003 173.94C7.11003 175.55 8.30003 177.38 10 178.14C23.17 180.98 61.38 189.14 64.4 189.14C65.95 189.14 143.76 181.57 190.29 177.08C192.97 177.08 195.62 175.71 195.29 173.23C195.17 172.63 195.17 172.69 195 172.65ZM153.39 149C154.01 153.91 154.21 158.9 154.58 163.84C153.55 164.233 152.411 164.233 151.38 163.84C148.38 158.15 143.63 150.43 144.38 143.72C144.61 141.56 144.7 140.61 143.47 138.81C144.54 138.74 145.63 138.64 146.77 138.46C146.98 138.46 147.06 138.46 147.77 134.56C149.2 138.96 149.2 139.26 149.55 139.18L152.13 138.63C152 142.14 152.91 145.57 153.39 149ZM124 172.88C125.42 174.42 129.34 172.18 131.11 171.03C131.149 171.006 131.18 170.972 131.2 170.931C131.219 170.89 131.226 170.845 131.22 170.8C131.189 170.592 131.201 170.379 131.256 170.176C131.311 169.973 131.408 169.783 131.54 169.62C131.566 169.58 131.6 169.547 131.64 169.521C131.679 169.495 131.724 169.478 131.77 169.47C131.93 169.47 132.24 169.76 132.39 170.31C132.54 170.86 133.98 170.53 134.39 170.31C134.56 170.21 134.57 170.23 134.39 167.31C138.95 168.16 147.94 169.71 151.19 170.31C151.29 170.74 151.39 171.16 151.5 171.56C140.5 172.56 63.68 179.42 61.75 179.56C60.62 179.3 37.47 175.17 36.66 175.03C57.72 173.3 112.73 168.8 127.31 167.55C125.37 170.47 123.72 170.85 123.65 171.19C123.564 171.478 123.551 171.784 123.612 172.079C123.673 172.374 123.806 172.649 124 172.88ZM122.3 131.49C116.6 131.68 42.69 134.3 38.25 133.2C34.67 132.75 32.99 129.66 33.25 124.02C33.31 121.02 33.06 33.3796 33.01 21.7596C49.27 22.4996 146.4 25.2096 156.92 25.2996C156.92 27.1496 156.75 36.2996 156.64 42.6096C153.3 41.7496 149.17 42.4996 149.77 45.7796C149.781 45.8339 149.809 45.8831 149.85 45.9196C150.228 46.215 150.543 46.5828 150.778 47.0014C151.012 47.4201 151.16 47.8812 151.214 48.3579C151.268 48.8346 151.227 49.3173 151.092 49.7777C150.958 50.2382 150.732 50.6672 150.43 51.0396C150.19 51.3196 150.86 52.5396 150.54 56.8196C150.11 62.5696 153.06 66.8196 156.43 67.8696C156.43 69.1696 156.38 74.0096 156.38 75.1496C152.87 69.6796 151.02 68.7296 145.18 64.9396C144.88 64.7396 144.87 65.2696 145.95 61.1596C146.641 60.9378 147.274 60.564 147.802 60.0656C148.33 59.5673 148.739 58.957 149 58.2796C149.221 55.9515 149.221 53.6078 149 51.2796C149.267 50.3892 149.329 49.4501 149.182 48.5324C149.034 47.6146 148.682 46.742 148.15 45.9796C147.237 44.4367 145.862 43.2194 144.22 42.4996C141.03 41.1596 138.07 42.4996 135.45 43.6496C132.45 45.0596 132.63 45.9096 133 49.1696C133.004 49.4296 133.069 49.685 133.189 49.9158C133.308 50.1466 133.48 50.3465 133.69 50.4996C132.99 52.8496 131.98 57.1796 132.74 59.4996C133.031 60.3319 133.487 61.0971 134.079 61.7499C134.672 62.4027 135.39 62.9297 136.19 63.2996C136.12 63.5996 135.97 64.1596 135.86 64.5796C135.37 64.4496 134.47 64.2296 133.94 64.1096C130.57 62.5396 127.51 60.7496 124.05 61.1096C123.783 61.1475 123.528 61.2506 123.31 61.4096C122.804 60.9229 122.21 60.5361 121.56 60.2696C121.02 59.2696 112.04 44.8696 111.93 44.6996C111.48 43.9896 111.1 43.3696 111.43 42.6496C111.76 41.9296 112.64 40.6496 112.54 39.5896L120.74 39.5396C121.005 39.5396 121.26 39.4343 121.447 39.2467C121.635 39.0592 121.74 38.8049 121.74 38.5396V35.7796C121.74 35.5144 121.635 35.2601 121.447 35.0725C121.26 34.885 121.005 34.7796 120.74 34.7796H91C90.7348 34.7796 90.4805 34.885 90.2929 35.0725C90.1054 35.2601 90 35.5144 90 35.7796V38.9996C90 39.2649 90.1054 39.5192 90.2929 39.7067C90.4805 39.8943 90.7348 39.9996 91 39.9996L102.29 39.8896C103.389 41.7906 105.029 43.3221 107 44.2896C107.42 44.5096 107.38 44.5396 108.19 48.8296C109.51 55.7396 110.87 62.8896 115.19 68.5996C115.11 68.7996 115.05 68.9996 114.98 69.1996C114.959 69.2662 114.955 69.3368 114.967 69.4055C114.979 69.4742 115.007 69.5391 115.049 69.5947C115.091 69.6504 115.146 69.6953 115.208 69.7257C115.271 69.7561 115.34 69.7712 115.41 69.7696C115.741 69.7603 116.07 69.8214 116.375 69.949C116.68 70.0766 116.954 70.2677 117.18 70.5096C117.01 72.4596 117.39 73.5096 119.7 75.2396C120.28 75.6696 124.19 77.7996 125.22 78.3396C124.76 80.1596 124.37 82.0196 124 83.8896C113.51 84.2396 90.56 84.4496 90 84.8896C89.8331 85.0216 89.6992 85.1906 89.609 85.3832C89.5187 85.5759 89.4746 85.7869 89.48 85.9996C89.32 89.9996 88.98 112.84 89.01 113.89C89.01 115.89 89.34 117.11 91.47 116.89C93.02 116.89 112.18 116.4 120.04 116.2C119.92 117.52 119.88 117.54 120.04 117.65C120.939 118.332 121.956 118.844 123.04 119.16C122.329 123.229 122.077 127.365 122.29 131.49H122.3ZM140 70.7996C137.61 71.0796 133.82 70.6996 133.14 68.4996C132.88 67.4996 133.83 65.7096 134.34 65.0896L136.08 65.4996C136.186 65.5241 136.297 65.5065 136.391 65.4505C136.484 65.3946 136.552 65.3046 136.58 65.1996C136.71 64.6396 136.87 64.0396 136.98 63.5996C137.37 63.7296 137.79 63.8896 137.88 63.5196C137.891 63.4802 137.893 63.4391 137.888 63.3987C137.883 63.3583 137.869 63.3193 137.849 63.284C137.828 63.2487 137.801 63.2177 137.769 63.193C137.736 63.1682 137.699 63.1501 137.66 63.1396C134.66 62.3096 133.03 59.3596 133.66 55.9296C133.974 53.6685 134.422 51.428 135 49.2196C135.87 50.1962 137.036 50.8615 138.32 51.1142C139.603 51.367 140.934 51.1933 142.11 50.6196C141.861 52.4506 142.005 54.3137 142.533 56.0846C143.06 57.8555 143.959 59.4936 145.17 60.8896C144 64.8896 143.96 64.8896 144.26 65.3296C144.56 65.7696 145.57 66.1896 146.72 67.0696C145.001 69.0805 142.616 70.4048 140 70.7996ZM140 72.5996C139.48 72.5996 140 71.6496 140.43 71.6496C140.86 71.6496 140.34 72.5696 140 72.5996ZM136.93 72.3496C136.93 72.8696 135.93 73.2596 135.57 72.9996C135.21 72.7396 135.76 72.1296 136.3 71.9996C136.429 71.9656 136.565 71.9832 136.681 72.0485C136.797 72.1139 136.883 72.222 136.92 72.3496H136.93ZM133.57 71.4396C133.529 71.4755 133.48 71.501 133.427 71.5141C133.374 71.5271 133.319 71.5272 133.266 71.5145C133.213 71.5018 133.164 71.4765 133.123 71.4408C133.082 71.4052 133.05 71.3602 133.03 71.3096C132.92 70.7796 133.71 70.4896 133.87 70.6996C134.03 70.9096 133.91 71.1496 133.56 71.4396H133.57ZM148.4 86.7396C148.465 86.7663 148.52 86.8124 148.557 86.8714C148.595 86.9305 148.613 86.9997 148.61 87.0696C148.592 87.1371 148.553 87.1973 148.499 87.242C148.446 87.2867 148.38 87.3138 148.31 87.3196C145.31 87.0496 143.06 85.0996 142.44 81.3896C142.424 81.3061 142.442 81.2196 142.49 81.1493C142.538 81.079 142.611 81.0305 142.695 81.0146C142.779 80.9987 142.865 81.0166 142.935 81.0645C143.006 81.1123 143.054 81.1861 143.07 81.2696C143.394 82.5704 144.057 83.7619 144.992 84.7229C145.926 85.6838 147.099 86.3797 148.39 86.7396H148.4ZM109.2 39.8296C109.26 40.0796 108.55 40.1696 107.93 41.8796C107.914 41.9583 107.928 42.04 107.968 42.1095C108.008 42.179 108.072 42.2315 108.148 42.2573C108.224 42.283 108.306 42.2802 108.38 42.2493C108.455 42.2185 108.515 42.1617 108.55 42.0896C109.08 40.6496 110.32 40.9196 110.08 39.7496C109.61 37.4796 110.17 36.3096 110.95 36.5396C111.1 36.5396 111.02 38.5396 111.51 39.0496C112.38 40.0496 110.8 41.5496 110.51 42.6596C110.43 43.0215 110.433 43.3969 110.52 43.7574C110.607 44.1178 110.774 44.4537 111.01 44.7396C111.2 45.0296 120.17 59.5196 120.77 60.4596C118.657 62.5384 116.885 64.938 115.52 67.5696C110.68 60.7396 109.73 52.1496 108.1 44.3096C107.898 43.8854 107.54 43.5557 107.1 43.3896C105.548 42.5846 104.242 41.3754 103.32 39.8896L109.2 39.8296ZM120.83 61.6396C121.28 61.1396 121.33 61.0396 121.5 61.0796C121.909 61.2859 122.292 61.5411 122.64 61.8396C121.46 62.7696 118.23 66.5196 117.38 69.3896C116.954 69.1002 116.462 68.9215 115.95 68.8696C116.87 66.0896 118.89 63.8296 120.83 61.6396ZM120.13 115.32C112.03 115.46 91.65 116.03 90.37 115.84C90 115.51 90.02 114.78 90.03 114.19C90.03 114.08 90.31 87.5696 90.46 85.8696C90.46 85.5296 87.98 85.6796 123.78 84.7996C122 94.4496 121.12 104.93 120.13 115.32ZM123.81 119.4C124.894 119.599 126.006 119.599 127.09 119.4C127.143 119.392 127.192 119.367 127.23 119.329C127.267 119.291 127.292 119.242 127.3 119.19C129.36 107.99 127.44 107.19 129.3 86.8596C130.3 75.4696 131.8 71.7096 131.5 71.3396C129.88 69.3396 130.88 67.1696 132.94 65.6996C131.94 67.4996 132.22 68.9596 133.02 69.8696C132.77 69.9624 132.557 70.1332 132.412 70.3567C132.267 70.5801 132.197 70.8444 132.214 71.1104C132.231 71.3763 132.333 71.6298 132.505 71.8332C132.677 72.0366 132.911 72.1791 133.17 72.2396C133.532 72.263 133.889 72.148 134.17 71.9177C134.45 71.6875 134.633 71.3593 134.68 70.9996C134.99 71.1257 135.307 71.2326 135.63 71.3196C134.28 72.1196 134.32 73.8796 135.9 73.8796C136.348 73.909 136.79 73.7673 137.137 73.4833C137.484 73.1993 137.71 72.7941 137.77 72.3496C137.77 71.2796 136.65 71.7096 139.14 71.6496C138.19 73.5796 140.8 74.0396 141.33 72.1696C141.422 71.911 141.422 71.6283 141.33 71.3696C145.95 70.3696 143.42 68.5596 141.33 76.4296C139.68 82.5696 140.33 89.8896 141.2 94.9996C140.049 95.9055 138.978 96.9092 138 97.9996C136.86 95.6096 136.37 94.5296 136.12 94.0596C135.87 93.5896 135.86 93.6996 135.72 93.7396C135.19 93.9196 133.77 94.4796 132.41 95.0496C132.98 88.9396 133.31 85.1896 134.41 76.2396C134.417 76.1618 134.394 76.0844 134.346 76.0228C134.298 75.9612 134.228 75.92 134.151 75.9074C134.074 75.8947 133.995 75.9117 133.93 75.9547C133.865 75.9978 133.819 76.0638 133.8 76.1396C132.93 81.4796 131.9 88.3896 131.47 95.4596C130.47 95.8796 129.95 96.0896 129.69 96.2396C129.43 96.3896 129.45 96.4596 129.5 96.5896C129.72 97.1196 130.36 98.5896 131.15 100.4C130.15 108.11 127.71 131.52 127.47 134.91C125.904 134.078 124.455 133.042 123.16 131.83C122.905 127.675 123.123 123.505 123.81 119.4ZM140.09 102.58C140.65 102.1 141.53 101.26 142.09 100.71C143.52 113.24 144.51 107.18 143.38 128.24C143.15 132.5 142.95 136.24 143.08 137.89C140.744 138.046 138.397 137.955 136.08 137.62C136.2 135.07 137.32 112.39 137.52 110C139.032 109.401 140.496 108.689 141.9 107.87C142.1 107.69 142.05 107.91 140.09 102.58ZM150.67 164.58V166.11C143.23 165.01 137.01 164.11 134.19 163.65C134.14 163.05 134.1 162.56 134.07 162.26C135.99 155.89 138.83 147.43 136.23 141.26C135.88 140.42 135.6 141.17 136.84 138.69C138.722 138.901 140.618 138.968 142.51 138.89C144.28 141.32 143.56 141.69 143.4 143.89C142.84 151.28 147.05 157.94 150.67 164.58ZM150.73 167.15C150.79 167.89 150.9 168.66 151.03 169.42L134.36 166.49C134.36 165.85 134.29 165.21 134.25 164.61C137.58 165.17 143.66 166.1 150.73 167.15ZM135.1 137.46C132.755 137.063 130.477 136.343 128.33 135.32C128.43 134.4 131.25 107.14 131.81 101.97C134.56 108.22 135.31 109.97 135.58 110.41C135.71 110.62 135.73 110.57 135.8 110.57C136.07 110.521 136.334 110.447 136.59 110.35C135.94 117.63 135.15 134.81 135.1 137.46ZM135.89 138.53C134.82 140.41 134.72 140.53 135.22 141.39C136.22 143.12 136.28 146.32 136.22 148.31C136.05 151.98 133.34 161.04 133.07 161.93C132.653 162.298 132.138 162.537 131.587 162.617C131.036 162.697 130.475 162.614 129.97 162.38C129.76 162.3 129.83 162.53 129.71 160.94C129.32 155.66 128.3 142 127.71 136.1C130.301 137.311 133.058 138.129 135.89 138.53ZM149.72 121.84C150.18 125.78 151.67 135.98 151.93 137.72L149.85 138.24C149.52 137.24 148.46 133.5 148.05 132.63C148.006 132.548 147.938 132.482 147.855 132.44C147.773 132.398 147.679 132.382 147.587 132.394C147.496 132.406 147.41 132.445 147.34 132.507C147.271 132.569 147.222 132.65 147.2 132.74C146.9 134.36 146.61 135.99 146.32 137.61C145.47 137.69 144.7 137.75 143.99 137.8C143.99 132.74 144.17 127.57 144.47 122.44C146.14 122.31 148.85 122 149.72 121.84ZM145.93 107.59C145.924 107.525 145.944 107.46 145.985 107.41C146.026 107.36 146.085 107.327 146.15 107.32C153.15 106.48 152.87 106.41 152.97 106.69C153.192 107.428 153.267 108.203 153.19 108.97C153.19 109.24 153.48 109.08 146.43 109.97C146.08 110.06 146.14 109.72 145.93 107.59ZM152.85 137.49C151.61 130.96 151.3 128.43 150.48 121.71C151.6 121.612 152.712 121.441 153.81 121.2C155.004 126.341 155.611 131.601 155.62 136.88C154.66 137.07 153.7 137.29 152.85 137.49ZM156.35 107.88C156.25 121.53 156.6 122.51 155.45 124.81C155.22 123.47 154.96 122.12 154.66 120.81C154.975 120.586 155.258 120.321 155.5 120.02C155.79 119.67 154.72 107.02 152.99 97.8696C153.83 97.5496 155.5 96.8696 156.4 96.4096C156.41 100.22 156.38 104.11 156.35 107.88ZM158.28 92.7196C158.057 93.6798 157.487 94.5238 156.68 95.0896C152.41 97.8496 142.24 99.2096 142.14 99.2196C142.092 99.2289 142.048 99.2503 142.011 99.2819C141.974 99.3134 141.946 99.354 141.93 99.3996C141.238 100.37 140.429 101.25 139.52 102.02C138.989 102.635 138.296 103.088 137.52 103.33C136.91 103.42 135.43 102.68 137.07 102.53C137.506 102.544 137.935 102.418 138.294 102.172C138.654 101.926 138.926 101.571 139.07 101.16C139.093 101.095 139.093 101.025 139.069 100.961C139.045 100.897 138.999 100.843 138.94 100.81C138.36 100.54 138.84 101.91 136.07 101.81C135.4 101.81 134.54 100.95 135.64 101.03C137.42 101.17 138.64 99.9496 138.2 99.6196C138.154 99.5814 138.095 99.5606 138.035 99.5606C137.975 99.5606 137.917 99.5814 137.87 99.6196C137.1 100.44 135.95 100.24 134.79 100.1C134.22 100.03 133.79 99.4196 134.54 99.2996C135.54 99.1396 137.99 99.1496 138.27 98.8696C141.27 95.5396 145.59 93.3296 149.11 91.5596C152.359 89.9624 155.473 88.1029 158.42 85.9996C158.779 88.2298 158.731 90.5064 158.28 92.7196ZM158.05 81.3796C158.603 82.2096 158.902 83.1826 158.91 84.1796C156.277 86.148 153.528 87.9579 150.68 89.5996C150.6 89.0296 150.46 87.9796 150.44 87.5996C154.23 85.4496 156.91 83.2396 158.05 81.3796ZM37.84 12.0696C70.71 12.8296 149.11 15.4396 149.11 15.4396C150.54 15.4396 151.26 15.5096 151.61 15.4896H151.7C154.49 15.8796 156.08 18.4896 156.6 20.5896C156.857 21.8527 156.964 23.1415 156.92 24.4296C139.59 24.1396 80.7 22.7996 33 20.7496C33 16.3296 33.42 12.6596 37.84 12.0696ZM33 130C30.46 130 22.47 130 19.93 130.12C19.93 127 19.75 105.44 19.72 102.31C21.61 102.38 30.29 102.16 32.28 102.11C32.3 127.29 32 127.33 33 130ZM32.26 92.9996C29.49 92.9996 21.07 92.9996 19.16 93.0896C19.22 91.9496 19.26 89.0896 19.29 87.7196C21.15 87.7196 29.41 87.4896 32.29 87.3296C32.25 89.1796 32.25 91.0796 32.25 92.9296L32.26 92.9996ZM32.26 86.4296C30.88 86.4296 19.47 86.7796 18.89 86.8296C18.31 86.8796 18.42 87.4196 18.39 88.4196C18.28 91.7296 18.25 93.0696 18.31 93.6196C18.36 93.9896 18.44 93.9996 18.58 94.0096C19.88 94.0996 30.95 93.9196 32.27 93.8996V101.21C18.5 101.37 18.88 101.35 18.88 101.9C18.88 102.16 18.88 128.51 18.99 130.8C18.99 131.27 20.17 131.15 33.46 131.04C35.05 134.04 37.6 134.28 40.99 134.52C44.38 134.76 119.07 132.58 122.52 132.46C123.744 133.82 125.217 134.933 126.86 135.74C127.35 141.37 128.06 151.74 128.5 158.36C122.21 158.78 17.5 166.53 13.78 166.8C13.78 164.31 13.33 81.8596 13.33 81.8596C14.97 81.8596 30.33 81.6096 32.24 81.5496V86.3596L32.26 86.4296ZM9.00003 173.13C7.85003 171.94 8.34003 175.56 8.34003 80.1296C8.34003 77.1296 10.34 76.3496 12.67 76.2196C15.67 76.0496 21.17 76.3496 32.24 76.0296V80.5596C29.94 80.5596 12.86 80.8396 12.86 80.8396C12.794 80.8419 12.7291 80.8572 12.669 80.8846C12.6089 80.9121 12.5549 80.9512 12.51 80.9996C12.31 81.2196 12.83 167.36 12.87 167.46C12.8895 167.504 12.9217 167.542 12.9626 167.569C13.0035 167.596 13.0512 167.61 13.1 167.61C13.1 167.61 118.43 159.99 128.56 159.16C128.56 159.8 128.84 163.41 128.88 163.9C115.36 165 10 173 9.00003 173.13ZM63.84 184.64L11.41 173.76C30.59 172.51 113.61 166.15 128.65 164.85C128.477 165.412 128.253 165.958 127.98 166.48C118.47 167.21 33.2 174.37 33.2 174.37C32.57 174.43 32.62 175.37 33.2 175.37L61.66 180.55C61.74 180.55 63.81 180.38 151.84 172.55C151.84 172.68 151.9 172.77 152 172.84C152.88 173.39 154.28 172.84 154.28 172.43C154.256 171.9 154.317 171.37 154.46 170.86C154.46 170.86 154.75 170.99 155.28 172.56C155.29 172.594 155.308 172.625 155.332 172.651C155.357 172.677 155.387 172.697 155.42 172.71C157.261 173.367 159.154 173.865 161.08 174.2C161.443 174.205 161.802 174.123 162.126 173.959C162.45 173.795 162.729 173.555 162.94 173.26C163.062 172.976 163.098 172.662 163.043 172.358C162.988 172.054 162.844 171.772 162.63 171.55C160.831 170.832 159.235 169.685 157.98 168.21C171.47 170.21 186.18 172.21 191.73 173.02L63.84 184.64Z" fill="black"/>
</svg>
